<mxfile host="app.diagrams.net" modified="2023-05-16T20:52:00.954Z" agent="Mozilla/5.0 (Windows NT 10.0; Win64; x64) AppleWebKit/537.36 (KHTML, like Gecko) Chrome/115.0.0.0 Safari/537.36" version="21.3.2" etag="ltQqCYRsJ0JTnvecCN61" type="github">
  <diagram name="Страница 1" id="GhMRwQD93QI4xG_kc-ph">
    <mxGraphModel>
      <root>
        <mxCell id="0" />
        <mxCell id="1" parent="0" />
      </root>
    </mxGraphModel>
  </diagram>
</mxfile>
